<?xml version="1.0" encoding="UTF-8"?>
<!DOCTYPE svg PUBLIC "-//W3C//DTD SVG 1.1//EN" "http://www.w3.org/Graphics/SVG/1.1/DTD/svg11.dtd">
<!-- Creator: CorelDRAW X6 -->
<svg xmlns="http://www.w3.org/2000/svg" xml:space="preserve" width="6.22222in" height="0.916661in" version="1.1" style="shape-rendering:geometricPrecision; text-rendering:geometricPrecision; image-rendering:optimizeQuality; fill-rule:evenodd; clip-rule:evenodd"
viewBox="0 0 6222 917"
 xmlns:xlink="http://www.w3.org/1999/xlink">
 <defs>
  <style type="text/css">
   <![CDATA[
    .fil1 {fill:#327A50;fill-rule:nonzero}
    .fil2 {fill:#4BA54F;fill-rule:nonzero}
    .fil0 {fill:#333436;fill-rule:nonzero}
   ]]>
  </style>
 </defs>
 <g id="Layer_x0020_1">
  <metadata id="CorelCorpID_0Corel-Layer"/>
  <path class="fil0" d="M396 180c-12,0 -13,9 -13,16l0 498c0,7 2,16 13,16l48 1 0 5c-31,0 -84,-1 -115,-1 -33,0 -78,1 -111,1l0 -5 47 -1c12,0 13,-9 13,-16l0 -498c0,-7 -2,-16 -13,-16l-49 0c-21,0 -48,33 -73,72 -14,23 -31,58 -36,73l-5 0 9 -151 437 0 9 151 -5 0c-6,-18 -20,-45 -36,-73 -25,-42 -52,-72 -73,-72l-49 0z"/>
  <path class="fil0" d="M652 287c-31,0 -56,-24 -56,-56 0,-31 24,-56 56,-56 31,0 56,24 56,56 0,31 -24,56 -56,56zm50 408c0,7 2,16 13,16l23 1 0 5c-31,0 -52,-1 -84,-1 -33,0 -56,1 -88,1l0 -5 25 -1c12,0 13,-9 13,-16l0 -305c0,-7 -2,-16 -13,-16l-27 -1 0 -5 67 0c24,0 50,-3 70,-6l0 333z"/>
  <path class="fil0" d="M786 389c0,-7 -2,-16 -13,-16l-26 -1 0 -5 63 0c24,0 54,-3 74,-6l0 63c37,-45 76,-66 120,-66 48,0 87,29 95,67 32,-41 74,-67 122,-67 49,0 97,34 97,82l0 255c0,7 2,16 13,16l22 1 0 5c-31,0 -55,-1 -86,-1 -33,0 -51,1 -84,1l0 -5 24 -1c12,0 13,-9 13,-16l0 -246c0,-45 -25,-55 -45,-55 -28,0 -61,18 -75,40l0 261c0,7 2,16 13,16l25 1 0 5c-31,0 -58,-1 -89,-1 -33,0 -51,1 -84,1l0 -5 24 -1c12,0 13,-9 13,-16l0 -246c0,-45 -25,-55 -45,-55 -29,0 -63,20 -75,40l0 261c0,7 2,16 13,16l25 1 0 5c-31,0 -58,-1 -89,-1 -33,0 -51,1 -84,1l0 -5 24 -1c12,0 13,-9 13,-16l0 -305z"/>
  <path class="fil0" d="M1565 426c-4,-40 -22,-64 -57,-64 -34,0 -56,31 -59,65 -3,26 -3,66 -3,91l121 0c0,-22 1,-69 -2,-92zm-41 300c-95,0 -181,-60 -181,-187 0,-116 86,-182 172,-182 87,0 156,56 156,156l0 10 -226 0 0 16c0,42 2,74 5,99 6,42 38,74 84,74 64,0 110,-42 135,-99l5 2c-27,66 -78,111 -150,111z"/>
  <path class="fil0" d="M1834 725c-61,0 -112,-27 -120,-27 -5,0 -13,14 -16,20l-4 0 0 -132 5 0c12,59 59,135 132,135 52,0 82,-34 82,-73 0,-45 -41,-55 -102,-67 -60,-12 -111,-33 -111,-114 0,-66 61,-110 122,-110 60,0 105,23 113,23 4,0 8,-8 10,-15l3 0 0 110 -5 0c-11,-41 -56,-113 -120,-113 -44,0 -67,31 -67,62 0,37 24,54 82,64 84,15 135,37 135,117 0,62 -52,120 -139,120z"/>
  <path class="fil0" d="M2662 726c-74,0 -134,-27 -154,-27 -9,0 -13,9 -16,16l-5 0 0 -182 5 0c19,81 70,187 174,187 88,0 119,-62 119,-112 0,-40 -14,-74 -66,-98 -37,-16 -83,-25 -132,-45 -58,-25 -95,-63 -95,-138 0,-88 66,-164 183,-164 70,0 131,27 145,27 9,0 13,-9 16,-16l5 0 0 170 -6 0c-19,-70 -59,-175 -160,-175 -75,0 -108,55 -108,106 0,41 16,74 69,97 37,16 83,25 131,45 60,26 95,66 95,135 0,101 -70,175 -203,175z"/>
  <path class="fil0" d="M2982 725c-45,0 -80,-30 -80,-69l0 -282 -40 0 0 -6 40 0 0 -108 27 0c23,0 47,-3 70,-8l0 116 72 0 0 6 -72 0 0 275c0,21 5,45 33,45 27,0 47,-25 53,-37l3 2c-17,34 -50,66 -106,66z"/>
  <path class="fil0" d="M3306 521c-43,0 -87,10 -102,52 -4,12 -6,23 -6,48 0,27 2,36 6,46 5,16 20,29 44,29 23,0 50,-15 59,-28l0 -147zm156 156c-21,30 -56,48 -86,48 -43,0 -66,-26 -69,-49 -31,37 -74,49 -113,49 -39,0 -91,-19 -91,-92 0,-100 127,-119 203,-119l0 -92c0,-34 -19,-58 -59,-58 -38,0 -79,19 -92,32l0 4c41,-6 65,16 65,48 0,25 -23,46 -49,46 -27,0 -52,-19 -52,-51 0,-51 67,-88 142,-88 100,0 140,33 140,81l0 221c0,14 5,33 27,33 13,0 26,-11 31,-18l4 4z"/>
  <path class="fil0" d="M3523 367c24,0 50,-3 70,-6l0 63c37,-45 75,-67 127,-67 59,0 99,38 99,86l0 251c0,7 2,16 13,16l23 1 0 5c-31,0 -56,-1 -87,-1 -33,0 -53,1 -86,1l0 -5 27 -1c12,0 13,-9 13,-16l0 -242c0,-45 -24,-59 -50,-59 -34,0 -66,20 -79,40l0 261c0,7 2,16 13,16l27 1 0 5c-31,0 -56,-1 -88,-1 -33,0 -55,1 -88,1l0 -5 24 -1c12,0 13,-9 13,-16l0 -305c0,-7 -2,-16 -13,-16l-26 -1 0 -5 66 0z"/>
  <path class="fil0" d="M3972 643c10,43 36,60 67,60 31,0 52,-16 65,-34l0 -257c-16,-20 -37,-30 -64,-30 -31,0 -59,20 -69,63 -4,19 -9,56 -9,98 0,45 5,79 10,101zm228 52c0,7 2,16 13,16l24 1 0 5c-33,0 -48,-1 -68,-1 -14,0 -46,1 -67,1l0 -38c-23,30 -57,47 -99,47 -92,0 -146,-73 -146,-184 0,-107 58,-185 151,-185 41,0 74,19 93,45l0 -206c0,-7 -2,-16 -13,-16l-38 -1 0 -5 79 0c0,0 50,-3 70,-6l0 526z"/>
  <path class="fil0" d="M4443 521c-43,0 -87,10 -102,52 -4,12 -6,23 -6,48 0,27 2,36 6,46 5,16 20,29 44,29 24,0 50,-15 59,-28l0 -147zm156 156c-21,30 -56,48 -86,48 -43,0 -66,-26 -69,-49 -31,37 -74,49 -113,49 -39,0 -91,-19 -91,-92 0,-100 127,-119 203,-119l0 -92c0,-34 -19,-58 -59,-58 -38,0 -79,19 -92,32l0 4c41,-6 65,16 65,48 0,25 -23,46 -49,46 -27,0 -52,-19 -52,-51 0,-51 67,-88 142,-88 100,0 140,33 140,81l0 221c0,14 5,33 27,33 13,0 26,-11 31,-18l4 4z"/>
  <path class="fil0" d="M4734 421c16,-23 60,-63 103,-63 38,0 62,25 62,65 0,31 -22,56 -52,56 -24,0 -51,-16 -51,-52 0,-27 13,-42 34,-50l-2 -4c-32,-2 -80,34 -95,56l0 265c0,7 2,16 13,16l36 1 0 5c-31,0 -65,-1 -96,-1 -33,0 -55,1 -88,1l0 -5 24 -1c12,0 13,-9 13,-16l0 -305c0,-7 -2,-16 -13,-16l-26 -1 0 -5 66 0c24,0 50,-3 70,-6l0 60z"/>
  <path class="fil0" d="M5017 643c10,43 36,60 67,60 31,0 52,-16 65,-34l0 -257c-16,-20 -37,-30 -64,-30 -31,0 -59,20 -69,63 -4,19 -9,56 -9,98 0,45 5,79 10,101zm228 52c0,7 2,16 13,16l24 1 0 5c-33,0 -49,-1 -68,-1 -14,0 -46,1 -66,1l0 -38c-23,30 -57,47 -99,47 -92,0 -145,-73 -145,-184 0,-107 58,-185 151,-185 41,0 74,19 93,45l0 -206c0,-7 -2,-16 -13,-16l-38 -1 0 -5 79 0c0,0 50,-3 70,-6l0 526z"/>
  <path class="fil1" d="M2200 800c0,0 -96,-1 -109,-1 -13,0 -14,-4 -12,-7 2,-3 0,-6 4,-6 4,0 10,2 13,0 3,-2 7,-2 13,-2 6,1 10,3 13,-1 3,-4 5,-1 9,-3 4,-2 4,-4 4,-11 0,-7 -1,-24 1,-32 1,-8 4,-9 4,-15 0,-6 -5,-15 -5,-23 1,-8 5,-7 5,-12 0,-5 1,-36 1,-36 0,0 -1,-7 -7,4 -3,3 -8,6 -4,9 4,3 3,4 2,8 -1,4 -1,6 -6,6 -5,0 -9,0 -13,1 -4,1 -5,-4 -4,-9 1,-5 -1,-5 4,-5 4,0 12,0 7,-2 -5,-2 -6,-4 -3,-6 3,-2 5,-1 5,-5 0,-4 2,-5 6,-9 4,-3 8,-6 10,-10 2,-4 3,-7 1,-11 -2,-4 -3,-5 -5,-3 -2,3 -2,5 -7,4 -5,-1 -3,-8 -3,-13 -1,-5 -1,-10 3,-12 4,-2 8,4 8,4 0,0 1,-7 4,-10 3,-3 7,-8 1,-10 -6,-3 -13,-1 -15,-7 -2,-6 -3,-7 1,-9 3,-2 8,-3 6,-9 -2,-6 -5,-9 -8,-4 -2,5 -7,9 -8,7 -2,-2 -4,-4 -5,1 -1,4 -8,-3 -8,1 1,4 -5,5 -3,8 2,3 1,9 -2,8 -3,-2 -6,-3 -10,-2 -4,2 -5,1 -5,-4 1,-5 3,-9 -3,-14 -7,-4 -11,-11 -10,-16 1,-5 4,-7 3,-10 -2,-3 -4,-12 -1,-14 4,-2 6,5 9,4 3,-1 -1,-5 9,-5 4,1 7,0 11,-3 4,-3 8,-5 13,-6 1,0 3,-1 6,0 3,1 1,7 6,3 2,-2 -3,-3 -6,-5 -1,-1 0,-2 -1,-3 -2,-2 -5,-4 -8,-1 -10,2 -13,-1 -14,-6 -1,-4 -3,-9 1,-11 4,-3 8,-3 11,-2 2,1 5,3 6,2 0,0 0,-4 3,-5 2,-1 6,0 7,-1 4,-3 -16,-1 -19,-2 -3,-1 -6,-4 -9,-4 -3,1 -3,-5 -7,-5 -4,0 -5,-3 -7,-4 -2,-2 -3,-4 -4,-6 -1,-3 6,-3 4,-7 1,-3 6,-3 11,-2 5,1 9,-1 12,1 3,1 4,-4 -1,-7 -5,-3 -9,-7 -7,-10 3,-5 7,-4 12,-4 5,1 4,-4 9,-4 4,0 12,1 15,-2 3,-3 7,-4 9,-7 3,-2 4,-8 5,-11 2,-3 -2,-4 -5,-1 -3,3 -7,4 -9,8 -2,4 -2,5 -7,3 -4,-3 -6,2 -12,1 -6,-1 -8,1 -9,-3 -1,-3 2,-6 -2,-7 -4,-1 -5,-6 0,-7 5,-1 7,7 10,6 3,-1 -4,-5 1,-7 5,-2 13,-3 4,-5 -9,-2 -9,-4 -12,-7 -3,-3 -7,0 -6,6 1,5 -2,7 -6,4 -4,-3 -2,4 -8,2 -6,-2 -4,-5 -4,-10 1,-4 -1,-11 2,-12 3,-1 8,0 2,-6 -3,-5 -2,-7 -1,-13 1,-6 -2,-13 2,-12 7,0 2,7 12,5 10,-2 11,1 14,3 3,3 6,2 5,-2 -1,-4 0,-5 5,-8 5,-3 8,-3 3,-5 -5,-2 -8,-5 -9,-12 -1,-7 -5,-13 -2,-15 4,-2 7,1 10,0 3,-1 3,-1 7,-1 4,1 6,-4 10,-2 3,1 5,4 5,-2 0,-5 1,-21 1,-25 -1,-4 -3,-6 -11,-9 -8,-3 -9,-8 -15,-11 -6,-3 -10,-8 -8,-12 3,-4 10,-7 10,-7 0,0 6,3 6,-3 0,-7 4,-9 7,-13 3,-4 1,-6 5,-6 4,1 6,-1 7,-3 1,-2 2,-3 8,-2 6,2 10,2 10,4 0,2 -1,9 4,8 5,-1 1,5 8,5 8,0 5,-4 9,-2 3,2 5,3 5,6 0,3 -8,4 -5,6 3,2 4,-1 8,1 4,2 6,3 9,3 3,0 4,7 -1,8 -4,1 -10,2 -14,2 -4,0 -11,-4 -14,-1 -3,4 -9,10 -2,8 7,-2 6,4 6,7 0,3 6,0 6,5 0,5 1,7 -2,5 -3,-2 -9,-4 -8,0 1,4 3,5 8,7 5,2 8,0 12,4 4,4 6,2 6,8 0,6 0,14 -3,12 -3,-3 -3,-4 -6,1 -3,5 -3,5 -7,3 -4,-2 -7,0 -12,0 -4,0 -4,1 -8,0 -4,-1 -5,1 -3,3 4,3 6,4 12,3 6,-1 5,0 10,3 5,3 8,5 5,8 -3,3 -9,0 -9,4 0,4 6,3 9,2 3,-1 4,2 5,5 2,3 -3,6 2,9 5,3 2,8 -4,6 -7,-2 -3,-5 -7,-4 -3,2 3,7 -2,7 -5,0 -2,2 -10,-1 -6,-2 -7,-1 -7,2 2,4 5,4 10,6 5,2 6,7 10,3 4,-4 5,-2 9,-2 4,1 8,4 11,3 3,-1 5,0 5,4 1,4 5,8 1,12 -4,4 -8,6 -14,8 -5,2 -8,4 -12,4 -4,0 -4,1 -6,3 -1,3 -8,1 -8,7 0,6 -4,10 1,11 4,1 9,1 12,1 3,0 4,4 -1,4 -5,0 -8,-1 -12,-1 -4,0 -5,5 -8,4 -3,-2 -9,-7 -8,-2 1,5 4,5 7,8 3,2 -1,6 4,7 5,1 3,8 11,7 8,-2 9,3 14,1 4,-2 6,1 12,-1 5,-2 9,0 8,3 -1,3 -9,5 2,5 11,1 7,3 7,6 -1,3 -4,4 -3,8 1,4 -2,12 -8,11 -7,-1 -7,-3 -10,-5 -3,-2 -2,4 -7,3 -5,-1 -4,-4 -8,-4 -4,-1 -13,0 -10,4 3,4 1,7 5,9 4,2 3,7 8,7 6,-1 6,0 7,3 2,3 5,3 9,3 3,0 4,6 -1,6 -5,0 -8,4 -5,7 3,3 7,0 9,3 3,3 -2,9 8,7 9,-2 2,2 12,2 10,0 4,1 3,7 -1,7 -2,7 -7,8 -3,5 -11,-2 -11,3 0,5 -10,10 -5,14 4,4 4,-1 9,3 6,4 7,7 6,12 -1,5 0,17 -7,15 -7,-2 -4,-6 -7,-11 -3,-5 -3,-4 -12,-3 -8,1 1,-6 -8,-5 -8,1 -15,0 -18,0 -3,0 -11,-7 -11,-1 0,6 -2,11 0,14 2,3 1,7 9,8 8,1 12,4 21,2 9,-2 7,4 6,8 -1,3 -3,5 -8,9 -4,3 -7,3 -9,2 -2,-1 -10,-9 -8,-4 2,5 1,10 -2,9 -3,-1 -10,-7 -10,0 -1,7 3,6 8,6 1,0 2,3 3,3 4,2 9,-4 6,7 -3,4 3,3 13,1 9,-2 7,7 7,9 0,3 -9,4 -4,7 6,3 7,-1 8,4 1,4 1,13 -4,12 -5,-1 -9,-1 -9,-4 0,-4 -1,-4 -4,-4 -4,0 -3,-4 -3,-7 0,-3 -2,-3 -7,-3 -5,0 -5,-2 -5,-6 0,-4 -6,-2 -6,5 -1,7 -1,55 0,63 1,8 1,11 1,20 0,9 -2,25 2,28 3,3 1,13 1,16 0,3 5,3 10,3 4,0 2,8 11,8 9,0 21,1 23,5 2,4 4,12 -10,11zm-48 -599c2,-3 0,-8 -4,-14 -3,-6 -6,-2 -8,-2 -3,0 -4,-5 -4,-10 0,-4 8,-7 12,-7 4,0 3,-5 0,-8 -3,-2 0,-5 -3,-8 -2,-3 0,-9 5,-8 3,-1 1,-3 0,-6 -1,-3 0,-11 -1,-16 0,-5 0,-14 2,-19 2,-5 10,-3 13,-1 3,1 4,11 4,15 0,4 2,10 -1,11 -5,1 -4,3 -1,5 3,1 2,4 -1,6 -3,2 -2,4 -1,8 1,3 0,6 3,4 3,-1 3,0 4,4 1,4 0,9 1,14 1,5 0,2 -7,4 -7,2 -3,4 -4,8 -1,4 0,11 3,9 3,-2 5,5 8,8 3,3 4,3 4,6 0,3 -4,1 -8,1 -4,0 -7,-1 -9,2 -2,3 -1,4 -3,3 -3,-1 -4,0 -4,0 -7,0 -2,-7 0,-10zm10 274c0,0 0,-10 2,-9 2,1 3,3 4,6 1,3 4,4 3,7 -1,3 -2,9 -7,7 -5,-2 -1,-7 -1,-11zm7 -15c3,1 5,2 7,5 1,3 3,2 6,4 2,2 6,7 -2,5 -8,-1 -9,-3 -9,-6 0,-4 -4,-4 -4,-7 0,-3 0,-3 2,-1zm-44 35c4,-1 1,-4 8,-4 7,0 5,0 5,6 0,5 -2,3 -10,4 -8,1 -8,-5 -4,-5zm55 20c0,0 1,-1 6,-1 4,0 7,3 1,3 -5,0 -5,1 -7,-1zm-44 -132c2,1 4,1 7,0 3,0 2,-2 1,-4 -1,-2 0,-5 3,-5 3,0 1,6 1,9 0,3 -2,4 -4,5 -2,2 -3,3 -5,1 -2,-1 -3,-1 -6,-2 -5,-2 1,-6 3,-5zm4 51c0,0 -1,-4 1,-3 2,1 5,4 2,4 -3,1 -3,-1 -3,-1zm27 -30c0,-2 2,-1 2,1 0,2 -2,2 -2,-1zm-49 63c0,0 -1,-1 1,-1 2,0 3,2 2,2 -1,1 -2,0 -3,-1zm-23 -98c0,0 2,2 4,0 3,-2 5,1 2,2 -2,1 -6,2 -7,-2zm18 -4c0,0 1,-2 3,-2 2,0 4,3 1,3 -4,0 -3,-2 -3,-2zm32 -18c1,-2 2,0 2,3 -1,3 2,4 2,4 -6,4 -5,-5 -4,-7zm20 -2c2,0 2,4 0,4 -2,-1 -3,-4 0,-4zm11 -171c0,0 0,-2 1,-2 2,0 4,0 2,2 -2,2 -3,0 -3,0zm-12 78c1,-1 4,4 1,4 -2,0 -3,-2 -1,-4zm-30 0c2,0 3,3 1,4 -3,1 -3,-3 -1,-4zm8 213c2,-2 5,3 2,4 -3,1 -3,-2 -2,-4zm-23 76c-2,-1 -1,-4 1,-4 2,0 0,0 3,-2 3,-2 3,-2 2,0 -1,2 -2,3 -2,5 -1,1 -2,2 -4,1zm51 6c0,0 0,1 1,-2 1,-3 2,-3 -1,-4 -2,-1 -4,-2 -1,-2 3,0 3,0 4,2 1,2 5,3 5,5 0,2 1,5 -3,4 -4,0 -5,-1 -5,-3zm-21 33c0,0 -1,-7 1,-9 2,-2 2,1 2,4 0,3 1,7 -1,7 -2,0 -2,-2 -2,-2zm45 -31c0,0 2,-2 2,0 1,2 1,9 0,6 -2,-2 -2,-6 -2,-6zm-41 48c0,2 -1,4 -1,7 0,2 1,4 -1,4 -2,0 -1,-2 -1,-4 0,-2 -1,-4 -2,-6 -1,-2 0,-5 3,-5 2,0 2,3 2,5zm0 150c1,3 2,0 3,3 1,3 -2,2 -2,6 0,4 3,3 3,6 0,3 0,2 -2,3 -2,1 -1,-4 -3,-6 -1,-3 -3,-1 -3,-4 0,-3 2,-4 1,-6 -2,-1 0,-4 0,-4 1,-3 3,0 4,2zm-17 39c3,3 3,1 7,-4 4,-5 -2,7 -6,9 -3,2 -3,-2 -4,-4 -1,-2 -3,-1 -3,-1 0,-2 3,-2 6,0zm20 -11c4,1 -1,4 -2,5 -1,1 -1,2 -1,4 0,2 -1,3 0,4 1,1 3,1 4,2 1,1 -1,1 -3,1 -2,0 -1,-3 -3,-2 -2,1 -2,-3 0,-6 1,-3 0,-4 0,-4 -1,-1 2,-5 6,-4zm-10 -69c0,3 1,5 -1,5 -2,0 0,-5 -1,-7 -1,-2 1,-5 1,-5 4,2 1,3 1,6zm128 78c2,0 3,1 4,3 1,2 2,5 -2,3 -3,-2 -7,-5 -2,-5z"/>
  <path class="fil2" d="M2290 111c5,1 6,2 5,4 0,1 -2,3 -1,3 3,1 7,-5 6,3 0,3 -3,5 -1,7 1,2 6,2 6,5 0,3 -1,6 -1,9 0,4 -1,8 1,9 2,1 6,2 5,5 -1,3 -8,12 -3,12 5,0 15,-4 16,-1 1,3 -2,5 -2,7 0,3 5,8 0,9 -4,1 -7,-1 -10,0 -3,1 -4,-1 -6,-3 -1,-2 -4,-3 -6,-3 -2,0 -1,4 0,7 1,3 -5,9 4,5 5,-2 7,1 6,4 0,2 -3,4 -3,5 0,1 4,0 5,0 3,0 3,3 2,6 -1,3 3,8 -2,8 -5,0 -9,-4 -12,-2 -3,2 -1,10 1,10 3,1 4,4 2,8 -1,2 -2,7 6,3 7,-4 8,0 10,2 1,2 3,3 7,2 5,-1 6,3 4,7 -2,4 1,7 8,6 6,-1 8,1 8,5 -1,3 -2,5 -1,8 0,3 -3,3 -5,3 -3,0 -9,-3 -9,0 0,3 1,6 -4,5 -5,-1 -10,-5 -11,0 -1,4 2,9 8,7 6,-2 5,-1 4,2 -1,3 0,11 -2,10 -2,0 -5,-4 -8,-4 -4,0 -9,3 -4,3 4,0 5,2 8,3 3,1 5,-1 8,0 3,1 -2,5 1,5 3,1 5,-3 8,-2 3,1 4,4 3,8 -1,4 -1,7 -1,10 0,3 -1,4 -4,7 -3,2 -3,5 -7,6 -4,0 -5,-2 -8,-2 -3,0 -4,-3 -7,-2 -3,1 -6,1 -9,1 -3,0 -8,4 -1,3 7,-1 8,0 11,2 3,2 5,2 9,1 3,-1 3,1 4,4 1,3 2,8 -3,8 -4,0 -9,0 -8,3 0,3 2,1 5,0 4,-1 5,-3 8,-2 3,1 0,5 1,8 1,3 5,-1 5,3 0,3 -1,4 0,7 0,3 1,8 -1,8 -3,0 -10,-6 -10,-3 0,3 1,5 3,7 3,2 4,4 8,3 5,-1 0,4 5,4 4,0 8,-1 11,-1 3,0 0,5 2,8 2,3 6,1 6,5 0,4 0,8 -2,9 -3,0 -4,1 -3,4 1,3 -1,8 0,11 0,3 -3,4 -6,3 -3,-1 -9,0 -15,0 -5,0 -10,-1 -12,0 -2,1 -4,6 -6,5 -3,-1 -6,-2 -4,1 2,3 -1,7 3,6 5,-1 8,0 12,-1 4,0 4,-2 5,1 1,3 -1,3 -1,6 0,3 1,14 -3,14 -3,0 -8,1 -10,-3 -2,-3 -3,-6 -3,-9 0,-3 -5,-2 -5,1 0,3 -1,8 -3,6 -2,-2 -5,-3 -6,-5 -1,-2 -4,-5 -4,0 -1,5 2,5 5,6 3,1 1,7 7,7 6,0 10,5 15,6 5,1 3,-3 11,-3 7,0 10,0 14,-1 4,-1 7,2 5,5 -1,3 0,5 4,3 4,-2 5,1 5,5 0,4 1,9 1,13 1,3 2,9 -1,7 -3,-2 -8,-3 -8,-1 0,3 -3,7 -6,5 -3,-2 -7,1 -9,-1 -2,-2 -2,-4 -6,-4 -4,0 -9,-3 -11,-1 -2,1 -8,5 -4,8 3,2 5,1 7,1 2,1 -3,7 2,5 4,-1 4,-1 7,1 2,3 -3,8 6,6 9,-2 12,0 12,3 0,3 0,8 -2,8 -2,0 -4,-2 -7,-1 -3,1 -7,5 -2,5 5,0 8,1 9,3 1,3 2,6 9,4 7,-1 7,1 10,0 3,-1 1,4 4,3 3,-1 6,1 6,4 0,3 -1,2 -1,5 1,3 -2,5 -4,4 -2,-2 -3,4 -4,5 -1,1 -2,5 -7,3 -5,-3 -8,-3 -8,1 0,4 1,8 0,10 0,2 -4,7 0,6 4,-1 7,-4 9,-2 2,2 -1,8 0,12 1,4 -1,11 0,15 1,6 -2,3 -6,3 -6,0 -8,0 -9,-2 -1,-2 0,-3 -3,-3 -3,0 -1,-5 -9,-4 -8,1 -9,0 -11,-3 -2,-3 -8,-1 -11,-2 -3,-1 -3,-5 -7,-5 -4,0 -4,-8 -8,-6 -4,2 1,4 2,8 0,4 -2,11 3,10 5,-1 10,0 12,2 2,3 4,4 4,4 0,0 -6,6 3,3 9,-3 10,-1 12,0 3,1 4,5 3,8 -1,3 -3,5 -5,6 -2,1 -3,-3 -5,-2 -1,1 3,8 0,7 -3,0 -5,0 -7,-1 -2,-1 -3,-7 -5,-7 -2,0 6,8 0,10 -5,2 -7,3 -10,0 -3,-2 -7,-4 -7,0 0,4 3,4 6,4 3,0 1,5 4,5 4,0 5,1 5,3 0,3 -6,3 -2,6 3,2 7,-2 10,0 3,2 2,4 5,7 3,3 -3,6 4,6 7,0 4,1 7,0 3,-1 -3,8 1,6 4,-1 8,-3 10,-1 1,1 -1,5 0,8 1,3 -2,8 -5,5 -3,-3 -4,-3 -7,-3 -3,0 -6,-3 -6,-1 0,2 1,8 -2,7 -3,-1 -3,-1 -6,-1 -3,0 -1,-1 -2,-5 0,-4 -3,-3 -5,-5 -2,-2 -2,-2 -3,-5 -1,-3 -1,-1 -4,-2 -3,-1 -1,-3 -3,-6 -2,-3 -5,-7 -7,-4 -2,2 0,8 0,15 0,7 -1,63 0,65 1,3 4,5 4,10 0,5 0,30 0,34 0,4 -5,14 2,11 7,-3 9,-1 12,0 3,0 3,8 7,8 4,0 10,-1 14,-1 3,0 2,5 6,5 3,0 6,0 6,2 0,2 -2,3 0,5 1,3 4,8 -5,8 -9,0 -107,0 -114,0 -8,0 -13,-3 -14,-5 -1,-3 0,-6 -1,-8 -1,-3 8,0 14,-1 5,0 10,0 11,-4 2,-4 13,-1 16,-3 3,-2 9,-3 9,-7 0,-4 -4,-8 0,-10 4,-2 3,-9 3,-20 0,-11 0,-33 0,-35 0,-3 -1,-5 2,-5 3,0 7,6 6,-3 0,-8 1,-33 1,-36 0,-4 -4,-3 -4,-6 0,-9 -4,-5 -5,1 -1,5 -1,8 0,11 1,3 -3,7 -5,4 -3,-2 -5,-1 -10,0 -4,1 -6,-1 -4,-6 1,-5 0,-8 0,-13 1,-4 3,-1 5,-5 1,-3 0,-4 3,-7 3,-3 -1,-5 3,-6 4,-1 4,-2 8,-5 4,-3 7,-8 4,-12 -2,-4 -8,-1 -10,5 -2,6 -4,6 -6,5 -2,-1 -5,-4 -7,-3 -1,2 3,10 -4,8 -7,-3 -12,-3 -16,-1 -4,2 -3,-1 -3,-5 0,-4 -2,-8 0,-10 3,-2 5,1 7,-3 1,-4 7,-1 9,-4 2,-3 0,-8 1,-11 1,-3 7,1 9,-3 2,-4 3,-5 8,-4 5,1 12,4 14,1 1,-3 4,-6 4,-9 0,-3 2,-6 -3,-4 -5,3 -9,1 -14,1 -4,-1 -12,4 -13,0 -1,-3 1,-7 0,-11 0,-3 1,-6 4,-5 3,1 6,3 5,-1 -1,-4 -1,-7 3,-10 4,-3 5,-11 0,-8 -6,3 -6,5 -8,5 -3,0 -4,0 -7,4 -3,4 -7,0 -10,5 -3,5 -3,6 -7,5 -4,-1 -5,-1 -5,-4 0,-3 3,-4 2,-7 -1,-3 -5,1 -11,1 -6,0 -12,-4 -8,-8 4,-5 8,-3 12,-5 4,-3 5,-5 9,-7 4,-2 5,-1 8,-5 3,-4 2,-2 1,-7 -1,-5 2,-7 -4,-8 -6,-2 -10,0 -10,-5 0,-5 3,-3 7,-2 4,1 7,3 7,0 0,-4 -4,-7 1,-5 5,1 8,1 10,-1 2,-2 4,-4 1,-5 -3,-1 -1,-6 -6,-3 -4,3 -7,4 -10,2 -3,-2 -8,3 -8,-2 1,-4 2,-8 1,-12 -1,-5 -1,-6 3,-5 4,1 12,5 14,2 2,-3 6,-2 6,-6 0,-4 -9,-3 -13,-4 -4,0 -11,-1 -12,-4 -1,-3 4,-5 3,-9 0,-4 -4,-2 -5,-7 -1,-5 -5,-10 0,-8 6,2 9,4 12,2 3,-2 6,-7 1,-8 -5,-1 -9,0 -10,-3 -1,-3 -6,1 -5,-5 1,-6 -3,-10 1,-11 4,-1 10,3 12,2 3,-1 3,7 6,5 3,-2 8,-3 1,-5 -6,-3 -4,-6 0,-6 4,0 13,1 13,-3 0,-4 -2,-5 -6,-4 -4,2 -9,1 -13,4 -4,2 -4,0 -2,-3 1,-3 4,-7 0,-5 -4,1 -5,0 -4,-3 1,-3 3,-5 5,-7 1,-1 8,0 8,4 0,4 4,5 4,1 0,-4 -1,-5 2,-6 4,-1 9,0 7,-4 -2,-4 -4,-1 -7,-3 -3,-2 -4,-6 -9,-4 -5,3 -8,1 -11,4 -4,3 -8,7 -9,3 -1,-4 -1,-3 0,-8 1,-5 6,-3 4,-9 -2,-6 -6,-3 -6,-10 0,-7 0,-13 -1,-18 -1,-5 -4,-7 4,-7 7,1 7,3 11,4 4,1 4,1 9,1 5,0 6,-1 7,1 1,2 -1,7 2,5 3,-1 4,-1 3,-4 0,-3 0,-6 2,-6 3,0 5,0 4,-3 -1,-4 -2,-7 -6,-5 -4,1 -6,1 -5,-5 1,-6 0,-11 0,-15 0,-4 -2,-7 2,-8 4,-1 3,1 8,0 5,0 10,1 14,1 4,0 5,-2 4,-6 -1,-4 -1,-4 4,-7 4,-3 4,-14 1,-11 -3,3 -3,3 -8,3 -5,1 -4,8 -9,8 -5,0 -8,1 -7,-3 1,-4 -3,-5 1,-8 4,-3 7,-2 7,-6 0,-1 11,1 11,-1 1,-4 -10,-11 -13,-10 -4,1 -8,3 -6,-2 2,-5 3,-6 -2,-7 -5,-1 -4,-3 -3,-7 1,-5 0,-6 1,-10 1,-4 2,-1 7,-2 3,0 2,-1 3,-4 1,-4 1,-1 4,-2 1,0 0,-1 0,-3 0,-5 4,-2 6,-2 1,0 -2,-1 1,-5 3,-4 7,1 7,-1 -1,-3 -1,-6 0,-8 2,-4 7,5 5,-4 0,-3 0,-2 -4,-2 -1,0 -3,0 -3,-6 0,-5 -1,-7 1,-8 2,-1 3,6 5,3 3,-4 -2,-3 -2,-6 0,-3 7,-7 0,-5 -8,2 -8,3 -11,1 -4,-1 0,0 -2,-7 -2,-7 1,-6 1,-11 0,-3 3,-2 5,0 3,2 3,3 5,1 2,-2 5,0 6,-5 0,-4 -2,0 -6,0 -4,1 -3,-3 -2,-8 0,-5 0,-4 3,-8 3,-4 4,-6 3,-12 -1,-6 -2,-5 -1,-13 0,-8 -2,-13 1,-15 3,-2 0,-1 5,0zm12 36c0,4 -2,6 -4,2 -2,-4 -1,-8 1,-7 2,1 2,1 2,5zm15 220c-3,-2 -4,5 -8,-1 -2,-3 -8,1 -6,-4 2,-4 3,0 8,-1 5,-1 6,2 10,3 4,1 3,0 5,4 2,5 0,5 -5,5 -4,0 -3,-5 -4,-6zm29 30c0,-3 6,-4 6,1 0,5 0,4 -2,2 -3,-2 -4,0 -4,-3zm-74 -10c-3,-1 -8,-2 -2,-5 5,-3 2,-1 6,0 4,1 7,-3 8,1 1,4 -1,2 -4,5 -3,3 -2,5 -4,5 -3,-1 0,-4 -4,-5zm2 13c5,0 9,-1 7,3 -1,4 -3,6 -3,9 0,4 -3,1 -6,3 -4,1 -4,1 -5,4 -1,3 -7,7 -6,1 1,-6 4,-3 4,-8 0,-5 -3,-7 2,-10 5,-3 3,-3 7,-3zm52 27c4,-1 3,1 3,5 0,4 -1,5 -4,3 -7,-3 -3,-8 1,-9zm-65 72c-3,-2 0,-4 4,-6 3,-2 7,-10 10,-2 3,8 0,10 -3,8 -3,-1 -7,2 -11,0zm47 -41c3,0 1,4 4,6 3,1 6,3 7,6 0,3 -1,5 -4,1 -3,-4 0,-4 -7,-8 -6,-4 -3,-5 0,-5zm-1 20c1,5 1,7 -4,6 -5,-1 -3,-7 -5,-11 -3,-4 -3,-6 0,-8 4,-3 3,2 3,7 0,5 4,1 5,6zm13 36c0,2 0,-3 2,-1 2,2 2,3 1,3 -2,0 -2,-4 -2,-2zm9 55c-2,-2 1,-5 2,-4 1,1 2,1 2,3 0,2 -3,2 -4,1zm-66 13c1,-2 3,-4 5,-3 2,1 2,1 1,3 -1,2 -8,3 -6,0zm-18 40c-2,-1 -1,-3 1,-6 2,-3 5,-6 7,-4 2,3 5,4 4,7 -1,3 -3,3 -6,1 -3,-2 -3,4 -5,2zm100 -67c-3,-2 2,-3 4,-4 2,0 3,-1 2,3 -1,4 -2,4 -3,3 -2,-1 -2,-2 -3,-3zm-32 -12c2,0 3,2 1,3 -1,0 -3,1 -3,-1 0,-2 0,-2 2,-2z"/>
 </g>
</svg>
